<svg xmlns="http://www.w3.org/2000/svg" version="1.1" xmlns:xlink="http://www.w3.org/1999/xlink" width="512" height="512" x="0" y="0" viewBox="0 0 512 512" style="enable-background:new 0 0 512 512" xml:space="preserve"><g><path fill="#E2E2E2" d="M347.6 98.8H198.2c-25.5 0-20.8-9.1 22.2-13.1-12.2-35.5 13.3-56.2 44.7-42.3 12.1-45 82.9-46.8 89.4 10.7 27.6-7.7 38.4 17.5 29.3 34.3 32.8 0 58.3 10.9-1.3 10.9-27.2-.1-34.9-.5-34.9-.5z" opacity="1" data-original="#e2e2e2"></path><path fill="#C6C6C6" d="M443 504.4c0 4.2-3.4 7.6-7.6 7.6H82.8c-4.2 0-7.6-3.4-7.6-7.6 0-4.2 3.4-7.6 7.6-7.6h352.6c4.2 0 7.6 3.5 7.6 7.6z" opacity="1" data-original="#c6c6c6"></path><path fill="#0447B7" d="m378.1 406.8-4.7-62.9c-1.4-19.8-5.1-30.4-18.6-29.4-4 .3-.6 11.2 1 11 7.7-.8 7.4 19.2 7.4 19.2L368 409c-1.4 2-2.3 4.7-2.3 7.6 0 6.2 3.7 11.2 8.4 11.2s8.4-5 8.4-11.2c0-4.2-1.8-7.9-4.4-9.8zM215.4 289.3 160 419.8l-9.2-4.7 55.4-130.5z" opacity="1" data-original="#0447b7"></path><path fill="#FFBE00" d="M170.5 414.5c0 7.7-6.2 14-14 14s-14-6.2-14-14c0-7.7 6.2-14 14-14 7.7 0 14 6.3 14 14z" opacity="1" data-original="#ffbe00"></path><path fill="#0447B7" d="M154.9 421h-29.7v-10.2h29.7c9.4-.1 8.7 10.2 0 10.2z" opacity="1" data-original="#0447b7"></path><path fill="#FFBE00" d="M371.4 422.5h-29.7v-10.2h29.7c9.3-.1 8.7 10.2 0 10.2z" opacity="1" data-original="#ffbe00"></path><path fill="#683604" d="M66.6 200.8h68.7v90.5H66.6z" opacity="1" data-original="#683604"></path><path fill="#8B4B00" d="M135.3 200.8h54v90.5h-54z" opacity="1" data-original="#8b4b00"></path><path fill="#FFBE00" d="M94.8 200.8H110V226H94.8z" opacity="1" data-original="#ffbe00"></path><path fill="#8B4B00" d="M71.9 110.3h71.2v90.5H71.9z" opacity="1" data-original="#8b4b00"></path><path fill="#683604" d="M143.1 110.3h46.2v90.5h-46.2z" opacity="1" data-original="#683604"></path><path fill="#FFBE00" d="M102.4 110.3h15.2v25.2h-15.2z" opacity="1" data-original="#ffbe00"></path><path fill="#FFC182" d="M282 193.8s4.3 3.7 9.2 7.4c5 3.7 57.7 29.2 57.7 29.2s6.9 13.6 18.6 13.6 18.6-.5 19.6-9.7 1.7-14.6-5.2-14.6-19.6.3-19.6.3-55.1-35.4-58.1-38.5c-3-3-6.2-8.2-6.2-8.2s-9.7 6.7-16 20.5z" opacity="1" data-original="#ffc182"></path><path fill="#048EFF" d="M364.9 237.8c0 1.2-1.1 2.2-2.5 2.2h-61.9c-1.4 0-2.5-1-2.5-2.2v-6.4c0-1.2 1.1-2.2 2.5-2.2h61.9c1.4 0 2.5 1 2.5 2.2z" opacity="1" data-original="#048eff"></path><path d="M251.7 275.4s-80.2 20.8-83.1-7.7c-2-19.8 12.4-19.6 12.4-19.6s66.6-3.9 70.7 27.3zM280.2 360.5s15.1 9.6 8.3 20.6c-2.1 3.5-2.3 3.8-2.3 3.8l-32.5-19.8s5.8-9.6 9.2-15.2c9.8 6 17.3 10.6 17.3 10.6z" fill="#000000" opacity="1" data-original="#000000"></path><path fill="#FFFFFF" d="m254.594 364.87 2.288-3.758 31.428 19.136-2.288 3.758z" opacity="1" data-original="#ffffff"></path><path fill="#FF8C00" d="M181.8 236.3s-5.3 18.5 10.3 30.8c19 15 106 5.3 106 5.3l-27.7 65.4 19 10.6s49.8-73.8 49.8-91.3c0-19.8-86-15-86-15s-29.9 9.7-71.4-5.8z" opacity="1" data-original="#ff8c00"></path><path fill="#048EFF" d="M280.4 388.1c-.7 1.2-2.3 1.5-3.4.8l-29.6-18c-1.2-.7-1.5-2.3-.8-3.4l1.7-2.8c.7-1.2 2.3-1.5 3.4-.8l29.6 18c1.2.7 1.5 2.3.8 3.4z" opacity="1" data-original="#048eff"></path><path fill="#048EFF" d="M243.7 417.6c-3.8 5.5-10.1.8-7-4.5 3.1-5.2 22.3-35.2 22.3-35.2l7.2 4.5s-18.7 29.8-22.5 35.2z" opacity="1" data-original="#048eff"></path><path fill="#0447B7" d="M288.8 348.6s1.9 2.2 0 5.5-4.4 9.6-8.1 7.5c-3.8-2.1-15.7-8.8-17.3-9.7s-2-3.7-.6-6.4 2-3.7 2.8-5.1 2.3-2.8 4.1-2.5c7.5 4.2 19.1 10.7 19.1 10.7z" opacity="1" data-original="#0447b7"></path><path fill="#D6D6D6" d="M148.7 337c-34.1 0-61.7 35.6-61.7 79.6s27.6 79.6 61.7 79.6 61.7-35.6 61.7-79.6c.1-43.9-27.6-79.6-61.7-79.6zm0 149.6c-30 0-54.3-31.3-54.3-70s24.3-70 54.3-70 54.3 31.3 54.3 70-24.3 70-54.3 70z" opacity="1" data-original="#d6d6d6"></path><path d="M148.7 327.3c-38.5 0-69.7 39.7-69.7 88.6s31.2 88.6 69.7 88.6 69.7-39.6 69.7-88.6c0-48.9-31.2-88.6-69.7-88.6zm0 166c-32.8 0-59.4-34.3-59.4-76.6s26.6-76.6 59.4-76.6 59.4 34.3 59.4 76.6-26.5 76.6-59.4 76.6z" fill="#000000" opacity="1" data-original="#000000"></path><path fill="#FFBE00" d="M199.2 301.6H73.6c-9.8 0-9.4-10.2 0-10.2h125.6z" opacity="1" data-original="#ffbe00"></path><path fill="#0447B7" d="M235.4 117.8s-23.2-8-30.7 14.9c-7.4 22.9-19.2 83.6-23 103.7 36 14.5 63.4 8.3 71.4 5.9l13.1-61.3 15 14.4s6.8-15.9 16.7-21.8c-19.1-26.4-30.2-47.3-42.4-51.7-12-4.5-20.1-4.1-20.1-4.1z" opacity="1" data-original="#0447b7"></path><path fill="#F9A355" d="M254.7 112.1s.5 4.7 1 9.6c-3 6.5-10.1 5.7-10.1 5.7s-7.2.9-10.1-5.7c.5-4.9 1-9.6 1-9.6z" opacity="1" data-original="#f9a355"></path><path fill="#0447B7" d="M250.6 3c0 1.7-2.3 3-5 3s-5-1.3-5-3 2.3-3 5-3 5 1.3 5 3z" opacity="1" data-original="#0447b7"></path><path fill="#FFC182" d="M246.2 112.8c40.1 0 36.5-29.9 36.5-29.9s11.2.8 11.2-14.2S282.7 58 282.7 58V43.1s.3-14.3-36.5-14.3h-1.3c-36.8 0-36.5 14.3-36.5 14.3V58s-11.2-4.3-11.2 10.8c0 15 11.2 14.2 11.2 14.2s-2 29.9 36.5 29.9z" opacity="1" data-original="#ffc182"></path><path fill="#8E453C" d="M204.8 42.3v15.1s2-.3 3.6.6c3.3-5 4.3-15.7 4.3-15.7z" opacity="1" data-original="#8e453c"></path><path d="M230.4 68.7c0 2.1-1.7 3.8-3.8 3.8-2.1 0-3.8-1.7-3.8-3.8v-3c0-2.1 1.7-3.8 3.8-3.8 2.1 0 3.8 1.7 3.8 3.8zM219.3 53.6s5.7-2.8 12.7.8c2 1.1 3.1-.9 1.3-2-1-.7-7.2-3.6-14.6.1-.5.4 0 1.3.6 1.1z" fill="#000000" opacity="1" data-original="#000000"></path><path fill="#8E453C" d="M286.3 42.3v15.1s-2-.3-3.6.6c-3.3-5-4.3-15.7-4.3-15.7z" opacity="1" data-original="#8e453c"></path><path d="M260.8 68.7c0 2.1 1.7 3.8 3.8 3.8 2.1 0 3.8-1.7 3.8-3.8v-3c0-2.1-1.7-3.8-3.8-3.8-2.1 0-3.8 1.7-3.8 3.8zM271.8 53.6s-5.7-2.8-12.7.8c-2 1.1-3.1-.9-1.3-2 1-.7 7.2-3.6 14.6.1.6.4 0 1.3-.6 1.1z" fill="#000000" opacity="1" data-original="#000000"></path><path fill="#FF8C00" d="M246.2 3c36.5 0 40.1 19.3 40.1 26.9v12.4h-81.5V29.9c0-7.6 3.6-26.9 40.1-26.9z" opacity="1" data-original="#ff8c00"></path><path fill="#0447B7" d="M246.2 38.2c30.1 0 36.4 4.1 36.4 4.1s-9.6 8.2-37.1 8.2c-27.4 0-37.1-8.2-37.1-8.2s6.3-4.1 36.4-4.1z" opacity="1" data-original="#0447b7"></path><g fill="#F9A355"><path d="M208.7 76V65.4s-6.2-2.7-6.2 3.7c0 5.7 4.7 6.9 6.2 6.9zM282.4 76V65.4s6.2-2.7 6.2 3.7c.1 5.7-4.6 6.9-6.2 6.9z" fill="#F9A355" opacity="1" data-original="#f9a355"></path></g><path fill="#8E453C" d="M257.8 85.3h-24.4s-1.2 14.5 12.2 14.5 12.2-14.5 12.2-14.5z" opacity="1" data-original="#8e453c"></path><path fill="#FFFFFF" d="M257.8 85.3s.3 3.6-1.8 3.6h-20.9c-2.1 0-1.7-3.6-1.7-3.6z" opacity="1" data-original="#ffffff"></path><path fill="#F95C57" d="M239.4 98.4s2.2 1.4 6.3 1.4 6-1.4 6-1.4-1.6-3.6-6.1-3.6c-4.6 0-6.2 3.6-6.2 3.6z" opacity="1" data-original="#f95c57"></path><path fill="#FF8C00" d="M243 162.4s0-6.6-9-30.4c-2.1-5.5-2.5-12.6-1.3-15-6.5-1.7-25.1-4-30.3 23.8 4.4 19.8 17 38 17 38s1.8 2.5 5.6 1.5c-1.9-3.1-3-4.7-3-4.7s11.3-9.7 21-13.2zM266.3 180.9s7.5-35.2.9-50.3c8.5 10.8 30.9 42.9 30.9 42.9s-11.1 7.9-16.1 20.4l2.4 2s-3.3 1.1-5.3.2-12.8-15.2-12.8-15.2z" opacity="1" data-original="#ff8c00"></path><path fill="#D6D6D6" d="M370.2 337c-34.1 0-61.7 35.6-61.7 79.6s27.6 79.6 61.7 79.6 61.7-35.6 61.7-79.6c0-43.9-27.6-79.6-61.7-79.6zm0 149.6c-30 0-54.3-31.3-54.3-70s24.3-70 54.3-70 54.3 31.3 54.3 70-24.4 70-54.3 70z" opacity="1" data-original="#d6d6d6"></path><path d="M370.2 327.3c-38.5 0-69.7 39.7-69.7 88.6s31.2 88.6 69.7 88.6 69.7-39.6 69.7-88.6c0-48.9-31.3-88.6-69.7-88.6zm0 166c-32.8 0-59.4-34.3-59.4-76.6s26.6-76.6 59.4-76.6 59.4 34.3 59.4 76.6-26.6 76.6-59.4 76.6z" fill="#000000" opacity="1" data-original="#000000"></path><path fill="#FFC182" d="M222.1 175.5s5.5 8.9 9 14c12.9 19.3 53.7 44.9 53.7 44.9s6.9 13.6 18.6 13.6c11.6 0 18.6-.5 19.6-9.7s1.7-14.6-5.2-14.6-19.6.3-19.6.3-24.2-22.2-42.4-43.1c-2.8-3.2-12.7-18.6-12.7-18.6s-10.5 2.3-21 13.2z" opacity="1" data-original="#ffc182"></path><path fill="#048EFF" d="m212.7 469.9-7-4.4 31.9-52.7 7 4.4z" opacity="1" data-original="#048eff"></path><path fill="#048EFF" d="M293.8 237.8c0 1.2-1.1 2.2-2.5 2.2h-5.6c-1.4 0-2.5-1-2.5-2.2v-6.4c0-1.2 1.1-2.2 2.5-2.2h5.6c1.4 0 2.5 1 2.5 2.2z" opacity="1" data-original="#048eff"></path><path fill="#FFBE00" d="M86.9 292.2c0 1.4-1.1 2.5-2.5 2.5h-2.3c-1.4 0-2.5-1.1-2.5-2.5V106.7c0-1.4 1.1-2.5 2.5-2.5h2.3c1.4 0 2.5 1.1 2.5 2.5zM127.1 292.2c0 1.4-1.1 2.5-2.5 2.5h-2.3c-1.4 0-2.5-1.1-2.5-2.5V106.7c0-1.4 1.1-2.5 2.5-2.5h2.3c1.4 0 2.5 1.1 2.5 2.5z" opacity="1" data-original="#ffbe00"></path><path d="M391 362c-.5-.4-1.2-.2-1.6.3s-.2 1.2.3 1.6c15.1 10.2 24.4 30.4 24.4 52.7 0 9.5-1.6 18.6-4.9 27-3.1 8-7.6 15.1-13.1 20.5-.5.5-.5 1.2 0 1.6.2.2.5.4.8.4s.6-.1.8-.3c5.7-5.6 10.4-13 13.6-21.3 3.4-8.7 5.1-18 5.1-27.9-.1-23-9.8-44-25.4-54.6zM324.5 416.6c0-10.5 2.1-20.8 6.1-29.8 3.8-8.7 9.4-16 15.9-21.2.5-.4.6-1.1.2-1.6s-1.1-.6-1.6-.2c-6.9 5.4-12.6 13-16.6 22.1-4.1 9.3-6.3 19.9-6.3 30.7 0 17 5.5 33.5 15.1 45.1.2.3.6.4.9.4s.5-.1.7-.3c.5-.4.6-1.1.2-1.6-9.3-11.1-14.6-27-14.6-43.6z" fill="#000000" opacity="1" data-original="#000000"></path><path d="M335.1 416.6c0-17.8 7.9-34 20.2-41.4.6-.3.7-1 .4-1.6s-1-.7-1.6-.4c-12.9 7.7-21.3 24.7-21.3 43.3 0 16.5 6.4 31.6 17.1 40.4.2.2.5.3.7.3.3 0 .7-.2.9-.4.4-.5.3-1.2-.2-1.6-10.2-8.3-16.2-22.8-16.2-38.6zM383.5 372.7c-.6-.3-1.2-.1-1.5.5s-.1 1.2.5 1.5c12.8 7.1 21 23.5 21 41.9 0 15.6-5.9 29.8-15.9 38.2-.5.4-.6 1.1-.2 1.6.2.3.6.4.9.4s.5-.1.7-.3c10.4-8.8 16.6-23.8 16.6-40 .2-19-8.5-36.2-22.1-43.8z" fill="#000000" opacity="1" data-original="#000000"></path><path d="M358.9 444c-7.9-5.3-12.9-15.9-12.9-27.6 0-10.3 3.9-20 10.3-25.7.5-.4.5-1.1.1-1.6s-1.1-.5-1.6-.1c-7 6.2-11.1 16.4-11.1 27.4 0 12.5 5.3 23.9 13.9 29.5.2.2.4.2.6.2.4 0 .7-.2 1-.5.4-.6.2-1.3-.3-1.6zM383.6 388.9c-.5-.4-1.2-.4-1.6.1s-.4 1.2.1 1.6c6.5 5.8 10.3 15.4 10.3 25.7 0 11.4-4.7 21.8-12.2 27.2-.5.4-.6 1.1-.3 1.6.2.3.6.5.9.5s.5-.1.7-.2c8.1-5.8 13.2-16.9 13.2-29.1.1-10.9-4.1-21.2-11.1-27.4zM103.9 416.6c0-10.5 2.1-20.8 6.1-29.8 3.8-8.7 9.4-16 15.9-21.2.5-.4.6-1.1.2-1.6s-1.1-.6-1.6-.2c-6.9 5.4-12.6 13-16.6 22.1-4.1 9.3-6.3 19.9-6.3 30.7 0 17 5.5 33.5 15.1 45.1.2.3.6.4.9.4s.5-.1.7-.3c.5-.4.6-1.1.2-1.6-9.2-11.1-14.6-27-14.6-43.6zM170.5 362c-.5-.4-1.2-.2-1.6.3s-.2 1.2.3 1.6c15.1 10.2 24.4 30.4 24.4 52.7 0 9.5-1.6 18.6-4.9 27-3.1 8-7.6 15.1-13.1 20.5-.5.5-.5 1.2 0 1.6.2.2.5.4.8.4s.6-.1.8-.3c5.7-5.6 10.4-13 13.6-21.3 3.4-8.7 5.1-18 5.1-27.9-.1-23-9.8-44-25.4-54.6z" fill="#000000" opacity="1" data-original="#000000"></path><path d="M114.5 416.6c0-17.8 7.9-34 20.2-41.4.6-.3.7-1 .4-1.6s-1-.7-1.6-.4c-12.9 7.7-21.3 24.7-21.3 43.3 0 16.5 6.4 31.6 17.1 40.4.2.2.5.3.7.3.3 0 .7-.2.9-.4.4-.5.3-1.2-.2-1.6-10.1-8.3-16.2-22.8-16.2-38.6zM163 372.7c-.6-.3-1.2-.1-1.5.5s-.1 1.2.5 1.5c12.8 7.1 21 23.5 21 41.9 0 15.6-5.9 29.8-15.8 38.2-.5.4-.6 1.1-.2 1.6.2.3.6.4.9.4s.5-.1.7-.3c10.4-8.8 16.6-23.8 16.6-40 0-19-8.7-36.2-22.2-43.8z" fill="#000000" opacity="1" data-original="#000000"></path><path d="M138.3 444c-7.9-5.3-12.9-15.9-12.9-27.6 0-10.3 3.9-20 10.3-25.7.5-.4.5-1.1.1-1.6s-1.1-.5-1.6-.1c-7 6.2-11.1 16.4-11.1 27.4 0 12.5 5.3 23.9 13.9 29.5.2.2.4.2.6.2.4 0 .7-.2 1-.5.4-.6.3-1.3-.3-1.6zM163.1 388.9c-.5-.4-1.2-.4-1.6.1s-.4 1.2.1 1.6c6.5 5.8 10.3 15.4 10.3 25.7 0 11.4-4.7 21.8-12.2 27.2-.5.4-.6 1.1-.3 1.6.2.3.6.5.9.5s.5-.1.7-.2c8.1-5.8 13.2-16.9 13.2-29.1 0-10.9-4.1-21.2-11.1-27.4z" fill="#000000" opacity="1" data-original="#000000"></path><path fill="#0447B7" d="M108.4 301.6 130.6 418l-10 1.9-22.5-118.3z" opacity="1" data-original="#0447b7"></path><path fill="#048EFF" d="M229.1 467.6c0 1.4-1.1 2.5-2.5 2.5H192c-1.4 0-2.5-1.1-2.5-2.5v-3.3c0-1.4 1.1-2.5 2.5-2.5h34.7c1.4 0 2.5 1.1 2.5 2.5v3.3z" opacity="1" data-original="#048eff"></path><path fill="#0447B7" d="m348.6 406.6-5.5-60.7s-2.3-19 3-19.5l10.5-1-1.4-10.9L348 240h-10.4l4.2 43.3H215.6l-1.3-5.8-11.1-.4 1.5 6.8L123.5 405l8.5 5.7 75.8-113.2 24.9 113.2h-90.1V421h100.3l101.5-113.4.8 7.7c-10.2 1.5-14.1 12-12.1 31.6l5.6 61.4c-1.5 2-2.5 4.9-2.5 7.9 0 6.2 3.7 11.2 8.4 11.2s8.4-5 8.4-11.2c-.2-4-1.9-7.7-4.4-9.6zm-106.4-.3-24.4-112.8H343l.1.3z" opacity="1" data-original="#0447b7"></path><path fill="#048EFF" d="M389 240c1.4 0 2.5-1 2.5-2.2v-6.4c0-1.2-1.1-2.2-2.5-2.2h-1.4s-.4 7.7-2.5 10.7c2.4.1 3.9.1 3.9.1z" opacity="1" data-original="#048eff"></path><path fill="#0447B7" d="M213 428.7s2.6 1 2 4.8-.7 10.5-5.1 10.5h-19.8c-1.8 0-3.3-2.3-2.8-5.3.5-3.1.6-4.2.9-5.8s1.2-3.6 3-4.2z" opacity="1" data-original="#0447b7"></path><path d="M210.5 444.1s17.8.4 17.8 13.3v4.5h-38.1v-17.8z" fill="#000000" opacity="1" data-original="#000000"></path><path fill="#FFFFFF" d="M190.9 456.7h36.8v4.4h-36.8z" opacity="1" data-original="#ffffff"></path><path fill="#FF8C00" d="M213.7 428.7s13.1-103.2 14.4-154.1c-25.4-9.9-47.2-29-47.2-29s10.6 73.6 11 183.1z" opacity="1" data-original="#ff8c00"></path><g fill="#FFBE00"><path d="M239.3 395.8c-11.5 0-20.8 9.3-20.8 20.9 0 11.5 9.3 20.9 20.8 20.9s20.9-9.3 20.9-20.9-9.4-20.9-20.9-20.9zM125.3 400.5c-7.7 0-14 6.2-14 14 0 7.7 6.2 14 14 14 7.7 0 14-6.2 14-14 0-7.7-6.3-14-14-14z" fill="#FFBE00" opacity="1" data-original="#ffbe00"></path></g><path fill="#E2E2E2" d="M418.6 169h-73.4c-25 0-41.1-5.3-3.2-10.4-8-26.6 29.5-45.4 48.1-16.3 7.8-11.6 35.8-7.3 28.6 17.3 33.1 2.2 38.6 9.4-.1 9.4z" opacity="1" data-original="#e2e2e2"></path><g fill="#FFFFFF"><path d="m246.4 11.8-17.2-.1s-3.7.4 15.6 1l-3.3 1.9-7.9-.1s-2.2.3 6.8.7l-2 1.1 8.1 4.6 8.1-4.6zM246.8 32.6l7.7-4.3V17.4l-7.6 4.3zM238.3 17.4c0-.1 0-.1 0 0l-11.3-.1s-1.6.5 11.2 1v4.6l-8.6-.1s-2.5.3 8.6.8v3.8l-13.7-.1s-3.4.4 13.8.9l7.4 4.2.1-10.9z" fill="#FFFFFF" opacity="1" data-original="#ffffff"></path></g></g></svg>