<svg xmlns="http://www.w3.org/2000/svg" version="1.1" xmlns:xlink="http://www.w3.org/1999/xlink" width="512" height="512" x="0" y="0" viewBox="0 0 512 438.9" style="enable-background:new 0 0 512 512" xml:space="preserve" class=""><g><g data-name="Layer 25"><path fill="#AF0E0E" d="M272.5 196.2h123.3a56.6 56.6 0 0 1 52.5 35.7l27.6 69.8a55 55 0 0 1 4 20.8v75.2H188.4v-75.2a55 55 0 0 1 4-20.8l27.6-69.8a56.6 56.6 0 0 1 52.5-35.7z" opacity="1" data-original="#af0e0e" class=""></path><path fill="#E0E0E0" d="M307.7 301.5h-12l-40-.7-12-.5c-15.4-.6-24.9-1.4-24.5-2.5l19.7-54c7.1-16.6 24.5-27.6 43.8-27.6h102.9c19.3 0 36.7 11 43.8 27.6l19.6 54c1.3 2.9-76.1 4.1-141.3 3.7z" opacity="1" data-original="#e0e0e0" class=""></path><g fill="#4A6792"><path d="M155.8 285.9c0 9.1 8.5 16.7 19.2 16.7h17l.4-.9 10.8-27.3h-35c-6.4 0-11.7 4.2-12.3 9.7a10.9 10.9 0 0 0-.1 1.8zM465.1 274.4l10.8 27.3a3.6 3.6 0 0 1 .4.9h16.4c10.8 0 19.3-7.6 19.3-16.7a10.9 10.9 0 0 0-.1-1.8c-.7-5.5-6-9.7-12.3-9.7zM230 438.9h-15.8a16.4 16.4 0 0 1-16.4-16.4v-24.8h48.6v24.8a16.4 16.4 0 0 1-16.4 16.4zM449.5 438.9h-15.8a16.4 16.4 0 0 1-16.4-16.4v-24.8h48.6v24.8a16.4 16.4 0 0 1-16.4 16.4z" fill="#4A6792" opacity="1" data-original="#4a6792" class=""></path></g><circle cx="229.2" cy="350.2" r="24.2" fill="#F9B130" opacity="1" data-original="#f9b130" class=""></circle><circle cx="439.3" cy="350.2" r="24.2" fill="#F9B130" opacity="1" data-original="#f9b130" class=""></circle><path fill="#4A6792" d="M384.8 366.7h-101v-33.1h101zM307.7 301.5h-12a20 20 0 0 0-40-.7l-12-.5a32 32 0 0 1 64 1.3zM155.8 48.4H0V-.05h155.8z" opacity="1" data-original="#4a6792" class=""></path><path fill="#F9B130" d="M0 75.4h167.8l-12-27H0zM131.8 430.7H0v-33.06h131.8z" opacity="1" data-original="#f9b130" class=""></path><path fill="#4A6792" d="M131.8 397.7H0V259.35h131.8zM126.5 75.4h12v51.74h-12z" opacity="1" data-original="#4a6792" class=""></path><path fill="#EFCDB1" d="m125.8 204.2 41.8 18.6a5.7 5.7 0 0 1 2.9 7.3l-4.6 10.7a5.6 5.6 0 0 1-7.2 3l-41.1-16.5" opacity="1" data-original="#efcdb1"></path><path fill="#AF0E0E" d="M49.1 189.6v69.7h47.5v-39l21 7 9.5-26.8-26-10.9z" opacity="1" data-original="#af0e0e" class=""></path><path fill="#EFCDB1" d="M45.6 170.2a30 30 0 1 0 47.3-33.6z" opacity="1" data-original="#efcdb1"></path><g fill="#AF0E0E"><path d="M43.7 159.6a31.1 31.1 0 0 0 1.9 10.6l47.3-33.6a30 30 0 0 0-49.2 23z" fill="#AF0E0E" opacity="1" data-original="#af0e0e" class=""></path><path d="m92.7 136.6-13.5-5.1 23-16.3 6.9 9.8z" fill="#AF0E0E" opacity="1" data-original="#af0e0e" class=""></path></g><path fill="#F9B130" d="M0 75.4h12v183.92H0z" opacity="1" data-original="#f9b130" class=""></path></g></g></svg>